<svg width="22" height="20" viewBox="0 0 22 20" fill="none" xmlns="http://www.w3.org/2000/svg">
<path d="M15.0254 18.5707L15.0257 15.357C15.0259 13.5818 13.5869 12.1426 11.8117 12.1426H4.61444C2.83951 12.1426 1.40059 13.5814 1.40039 15.3563L1.40002 18.5707M20.5997 18.5709L20.6 15.3571C20.6002 13.582 19.1612 12.1428 17.386 12.1428M14.4064 2.06051C15.1957 2.64615 15.7072 3.58501 15.7072 4.64334C15.7072 5.70167 15.1957 6.64052 14.4064 7.22616M11.4938 4.64316C11.4938 6.41824 10.0548 7.85722 8.27977 7.85722C6.50469 7.85722 5.06571 6.41824 5.06571 4.64316C5.06571 2.86809 6.50469 1.42911 8.27977 1.42911C10.0548 1.42911 11.4938 2.86809 11.4938 4.64316Z" stroke="#434D7E" stroke-width="2" stroke-linecap="round" stroke-linejoin="round"/>
</svg>
