<svg width="5" height="8" viewBox="0 0 5 8" fill="none" xmlns="http://www.w3.org/2000/svg">
<path d="M0.542841 0.208082C0.477176 0.273612 0.42508 0.35145 0.389535 0.437139C0.35399 0.522829 0.335693 0.614687 0.335693 0.707457C0.335693 0.800226 0.35399 0.892084 0.389535 0.977774C0.42508 1.06346 0.477176 1.1413 0.542841 1.20683L3.29117 3.95517L0.542841 6.7035C0.410399 6.83594 0.335993 7.01557 0.335993 7.20287C0.335993 7.39018 0.410399 7.56981 0.542841 7.70225C0.675284 7.83469 0.854914 7.9091 1.04222 7.9091C1.22952 7.9091 1.40915 7.83469 1.54159 7.70225L4.79284 4.451C4.85851 4.38547 4.9106 4.30763 4.94615 4.22194C4.98169 4.13625 4.99999 4.04439 4.99999 3.95162C4.99999 3.85885 4.98169 3.767 4.94615 3.68131C4.9106 3.59562 4.85851 3.51778 4.79284 3.45225L1.54159 0.200998C1.27242 -0.0681686 0.819091 -0.0681684 0.542841 0.208082Z" fill="white"/>
</svg>
