<svg width="22" height="20" viewBox="0 0 22 20" fill="none" xmlns="http://www.w3.org/2000/svg">
<path d="M1.40006 14.2002L2.40006 14.2001L1.40006 14.2002ZM16.3999 15.2C16.9522 15.2 17.3999 14.7523 17.3999 14.2C17.3999 13.6477 16.9522 13.2 16.3999 13.2V15.2ZM10.3999 13.2C9.84762 13.2 9.3999 13.6477 9.3999 14.2C9.3999 14.7523 9.84762 15.2 10.3999 15.2V13.2ZM4.5999 14.2902C4.5999 14.8425 5.04762 15.2902 5.5999 15.2902C6.15219 15.2902 6.5999 14.8425 6.5999 14.2902H4.5999ZM6.5999 14.2C6.5999 13.6477 6.15219 13.2 5.5999 13.2C5.04762 13.2 4.5999 13.6477 4.5999 14.2H6.5999ZM0.419322 12.8039C0.31101 13.3454 0.662226 13.8723 1.20379 13.9806C1.74535 14.0889 2.27217 13.7377 2.38048 13.1961L0.419322 12.8039ZM3.41404 2.92932L4.39462 3.12544L3.41404 2.92932ZM18.039 2.84411L19.0118 2.61249V2.61249L18.039 2.84411ZM19.6271 13.8316C19.755 14.3689 20.2943 14.7007 20.8315 14.5728C21.3688 14.4449 21.7006 13.9056 21.5727 13.3684L19.6271 13.8316ZM15.8002 8.4H6.20006V10.4H15.8002V8.4ZM15.8002 18H6.20006V20H15.8002V18ZM19.6002 14.2C19.6002 16.2987 17.8989 18 15.8002 18V20C19.0035 20 21.6002 17.4033 21.6002 14.2H19.6002ZM15.8002 10.4C17.8989 10.4 19.6002 12.1013 19.6002 14.2H21.6002C21.6002 10.9967 19.0035 8.4 15.8002 8.4V10.4ZM2.40006 14.2001C2.39999 12.1014 4.10133 10.4 6.20006 10.4V8.4C2.99673 8.4 0.399954 10.9969 0.400058 14.2002L2.40006 14.2001ZM0.400058 14.2002C0.400162 17.4034 2.99688 20 6.20006 20V18C4.10142 18 2.40013 16.2988 2.40006 14.2001L0.400058 14.2002ZM6.5999 14.2902V14.2H4.5999V14.2902H6.5999ZM16.3999 13.2H10.3999V15.2H16.3999V13.2ZM2.38048 13.1961L4.39462 3.12544L2.43346 2.73321L0.419322 12.8039L2.38048 13.1961ZM5.76743 2H15.7042V0H5.76743V2ZM17.0662 3.07573L19.6271 13.8316L21.5727 13.3684L19.0118 2.61249L17.0662 3.07573ZM15.7042 2C16.3525 2 16.916 2.44508 17.0662 3.07573L19.0118 2.61249C18.6471 1.0809 17.2786 0 15.7042 0V2ZM4.39462 3.12544C4.5255 2.47104 5.10008 2 5.76743 2V0C4.14672 0 2.75131 1.14397 2.43346 2.73321L4.39462 3.12544Z" fill="white"/>
</svg>
